<svg width="36" height="36" viewBox="0 0 36 36" fill="none" xmlns="http://www.w3.org/2000/svg">
<path d="M18.0001 0.666504C20.2986 0.666504 22.503 1.5796 24.1283 3.20491C25.7537 4.83023 26.6667 7.03463 26.6667 9.33317C26.6667 11.6317 25.7537 13.8361 24.1283 15.4614C22.503 17.0867 20.2986 17.9998 18.0001 17.9998C15.7015 17.9998 13.4971 17.0867 11.8718 15.4614C10.2465 13.8361 9.33342 11.6317 9.33342 9.33317C9.33342 7.03463 10.2465 4.83023 11.8718 3.20491C13.4971 1.5796 15.7015 0.666504 18.0001 0.666504ZM18.0001 22.3332C27.5767 22.3332 35.3334 26.2115 35.3334 30.9998V35.3332H0.666748V30.9998C0.666748 26.2115 8.42341 22.3332 18.0001 22.3332Z" fill="#00FFDD"/>
</svg>
